<svg width="20" height="20" viewBox="0 0 20 20" fill="none" xmlns="http://www.w3.org/2000/svg">
<path fill-rule="evenodd" clip-rule="evenodd" d="M13.1254 7.89819L17.5004 8.12507L18.2429 9.02258L18.1254 17.3126L17.1535 18.0151L8.89848 18.1251L8.12535 16.8751L7.84473 13.1251C7.84473 13.1251 13.4179 11.4219 13.1254 7.89819Z" fill="#D3D3D3" fill-opacity="0.75"/>
<path fill-rule="evenodd" clip-rule="evenodd" d="M7.5 13.75C4.05062 13.75 1.25 10.9494 1.25 7.5C1.25 4.05062 4.05062 1.25 7.5 1.25C10.9488 1.25 13.7487 4.04938 13.75 7.4975H16.8775C17.3748 7.4975 17.8517 7.69504 18.2033 8.04667C18.555 8.39831 18.7525 8.87522 18.7525 9.3725V16.875C18.7525 17.3723 18.555 17.8492 18.2033 18.2008C17.8517 18.5525 17.3748 18.75 16.8775 18.75H9.375C8.87772 18.75 8.4008 18.5525 8.04917 18.2008C7.69754 17.8492 7.5 17.3723 7.5 16.875V13.75ZM13.625 8.7475C13.379 9.9484 12.7859 11.0507 11.9193 11.9177C11.0528 12.7847 9.95077 13.3784 8.75 13.625V16.875C8.75 17.0408 8.81585 17.1997 8.93306 17.3169C9.05027 17.4342 9.20924 17.5 9.375 17.5H16.8775C17.0433 17.5 17.2022 17.4342 17.3194 17.3169C17.4367 17.1997 17.5025 17.0408 17.5025 16.875V9.3725C17.5025 9.20674 17.4367 9.04777 17.3194 8.93056C17.2022 8.81335 17.0433 8.7475 16.8775 8.7475H13.625ZM7.5 2.5C10.2594 2.5 12.5 4.74063 12.5 7.5C12.5 10.2594 10.2594 12.5 7.5 12.5C4.74063 12.5 2.5 10.2594 2.5 7.5C2.5 4.74063 4.74063 2.5 7.5 2.5Z" fill="black"/>
</svg>
