<svg width="20" height="20" viewBox="0 0 20 20" fill="none" xmlns="http://www.w3.org/2000/svg">
<path d="M15.8333 3H4.16667C3.85725 3 3.5605 3.12292 3.34171 3.34171C3.12292 3.5605 3 3.85725 3 4.16667C3 4.47609 3.12292 4.77283 3.34171 4.99162C3.5605 5.21042 3.85725 5.33333 4.16667 5.33333H8.83333V15.8333C8.83333 16.1428 8.95625 16.4395 9.17504 16.6583C9.39383 16.8771 9.69058 17 10 17C10.3094 17 10.6062 16.8771 10.825 16.6583C11.0437 16.4395 11.1667 16.1428 11.1667 15.8333V5.33333H15.8333C16.1428 5.33333 16.4395 5.21042 16.6583 4.99162C16.8771 4.77283 17 4.47609 17 4.16667C17 3.85725 16.8771 3.5605 16.6583 3.34171C16.4395 3.12292 16.1428 3 15.8333 3Z" fill="black"/>
</svg>
